<svg xmlns="http://www.w3.org/2000/svg" fill="none" viewBox="0 0 268 85" height="85" width="268">
<g clip-path="url(#clip0_194_131)">
<path fill="#B3E5D0" d="M74.7709 2.0498H10.1056C2.98329 2.0498 -0.438217 10.7267 4.78133 15.5337L30.8034 39.5166C37.3671 45.5615 47.5036 45.5615 54.0615 39.5166L80.0894 15.5337C85.3031 10.7267 81.8816 2.0498 74.7651 2.0498L74.7709 2.0498ZM42.4354 35.774C35.9298 35.774 30.6579 30.5331 30.6579 24.066C30.6579 17.5988 35.9298 12.3579 42.4354 12.3579C48.9409 12.3579 54.2128 17.5988 54.2128 24.066C54.2128 30.5331 48.9409 35.774 42.4354 35.774Z"></path>
<path fill="#B3E5D0" d="M42.435 74.0353C48.9395 74.0353 54.2125 68.7789 54.2125 62.2947C54.2125 55.8106 48.9395 50.5542 42.435 50.5542C35.9305 50.5542 30.6576 55.8106 30.6576 62.2947C30.6576 68.7789 35.9305 74.0353 42.435 74.0353Z"></path>
</g>
<path fill="#B3E5D0" d="M242.959 69.2636C237.818 69.2636 233.644 67.9975 230.439 65.4652C227.293 62.9329 225.721 59.5264 225.721 55.2456C225.721 50.7236 227.414 47.0156 230.801 44.1216C234.189 41.2275 239.511 39.3886 246.77 38.6048L260.016 37.2482V35.5299C260.016 32.0932 258.837 29.4102 256.478 27.4808C254.119 25.5514 251.064 24.5867 247.314 24.5867C243.806 24.5867 240.842 25.5514 238.423 27.4808C236.003 29.4102 234.642 32.0932 234.34 35.5299L226.537 34.2637C227.021 30.8873 228.231 27.9631 230.166 25.4911C232.102 23.0191 234.552 21.1199 237.515 19.7935C240.479 18.4067 243.745 17.7134 247.314 17.7134C251.367 17.7134 254.935 18.467 258.02 19.9744C261.105 21.4817 263.524 23.6221 265.278 26.3955C267.093 29.169 268 32.4851 268 36.3438V68.5401H260.016V60.0389C258.867 62.6917 256.72 64.8924 253.574 66.6409C250.429 68.3894 246.891 69.2636 242.959 69.2636ZM260.016 43.6694L246.951 45.1164C242.536 45.5385 239.239 46.6237 237.062 48.3722C234.945 50.1207 233.886 52.3214 233.886 54.9743C233.886 57.4463 234.794 59.3455 236.608 60.6719C238.483 61.9984 241.024 62.6616 244.229 62.6616C247.193 62.6616 249.854 61.9682 252.213 60.5815C254.572 59.1948 256.447 57.1749 257.839 54.5221C259.29 51.8089 260.016 48.5531 260.016 44.7547V43.6694Z"></path>
<path fill="#B3E5D0" d="M208.456 68.5401V4.50928H216.531V68.5401H208.456Z"></path>
<path fill="#B3E5D0" d="M168.184 85.0001L174.807 68.8116L155.21 18.437H164.01L178.981 58.3206L193.951 18.437H202.479L176.622 85.0001H168.184Z"></path>
<path fill="#B3E5D0" d="M109.569 68.5402V5.23291H117.916V34.1734L146.768 5.23291H157.746L132.886 30.1941L160.468 68.5402H150.306L127.261 35.8013L117.916 45.207V68.5402H109.569Z"></path>
<defs>
<clipPath id="clip0_194_131">
<rect transform="translate(0.532959 2.0498)" fill="white" height="73.3784" width="83.5946"></rect>
</clipPath>
</defs>
</svg>
