<svg width="922" height="307" viewBox="0 0 922 307" fill="none" xmlns="http://www.w3.org/2000/svg">
<path d="M261.698 163.038C261.698 152.808 263.787 143.046 267.964 133.753C272.142 124.375 278.152 116.105 285.996 108.944C293.839 101.783 303.43 96.0707 314.769 91.8079C326.193 87.5452 339.152 85.4138 353.645 85.4138C368.053 85.4138 381.012 87.5878 392.521 91.9358C404.116 96.1985 413.92 102.081 421.934 109.584C430.033 117.086 436.214 125.91 440.477 136.055C444.825 146.2 446.999 157.07 446.999 168.665C446.999 170.114 446.956 171.691 446.871 173.397C446.871 175.016 446.786 176.508 446.615 177.872H303.899C305.519 182.391 308.119 186.526 311.7 190.277C315.366 194.028 319.927 197.268 325.383 199.996C330.839 202.724 337.148 204.856 344.31 206.39C351.471 207.839 359.4 208.564 368.096 208.564C376.792 208.564 385.445 207.669 394.056 205.879C402.666 204.003 410.894 201.658 418.737 198.845L431.525 227.746C426.58 230.048 421.55 232.094 416.435 233.885C411.405 235.59 406.119 237.039 400.578 238.233C395.121 239.341 389.367 240.194 383.314 240.79C377.346 241.387 371.037 241.686 364.387 241.686C347.421 241.686 332.545 239.639 319.756 235.547C306.968 231.455 296.269 225.871 287.658 218.795C279.047 211.719 272.568 203.406 268.22 193.858C263.872 184.309 261.698 174.036 261.698 163.038ZM406.844 148.332C405.48 144.154 403.349 140.275 400.45 136.694C397.636 133.029 394.098 129.874 389.836 127.231C385.573 124.503 380.628 122.372 375.001 120.837C369.375 119.303 363.194 118.535 356.458 118.535C349.297 118.535 342.775 119.345 336.893 120.965C331.01 122.585 325.852 124.759 321.419 127.487C316.986 130.215 313.277 133.37 310.293 136.95C307.394 140.531 305.263 144.325 303.899 148.332H406.844ZM453.853 87.9715H497.717L536.977 178.768L547.207 204.216L557.438 178.768L596.697 87.9715H640.561L569.075 239H525.339L453.853 87.9715ZM654.96 26.8439H692.813V239H654.96V26.8439ZM746.345 257.927C750.267 260.484 754.529 262.743 759.133 264.704C763.737 266.665 768.511 268.285 773.456 269.564C778.486 270.843 783.601 271.78 788.802 272.377C794.002 273.059 799.16 273.4 804.275 273.4C821.667 273.4 835.052 269.649 844.43 262.147C853.894 254.729 858.625 243.561 858.625 228.642V223.526C855.3 225.828 851.549 227.96 847.372 229.92C843.279 231.796 838.846 233.416 834.072 234.78C829.383 236.144 824.395 237.21 819.11 237.977C813.909 238.659 808.623 239 803.252 239C791.743 239 781.427 237.338 772.305 234.013C763.268 230.602 755.595 225.658 749.286 219.178C743.063 212.614 738.288 204.557 734.963 195.009C731.638 185.46 729.976 174.548 729.976 162.271V88.0994H767.701V151.785C767.701 170.029 771.154 183.499 778.06 192.195C785.05 200.806 796.048 205.111 811.053 205.111C821.625 205.111 830.96 203.278 839.059 199.612C847.244 195.861 853.766 191.087 858.625 185.29V88.0994H896.478V221.736C896.478 236.144 894.432 248.634 890.34 259.205C886.248 269.862 880.28 278.686 872.436 285.677C864.678 292.668 855.13 297.868 843.791 301.278C832.452 304.774 819.579 306.522 805.171 306.522C791.103 306.522 777.974 305.03 765.783 302.046C753.591 299.062 742.423 295.012 732.278 289.897L746.345 257.927Z" fill="#FFC300"/>
<path d="M88.537 148.071H44.7774L112.452 238.134H157.738L88.537 148.071Z" fill="#FFC300"/>
<path d="M44.7774 202.007H0L27.9858 238.134H72.2544L44.7774 202.007Z" fill="#FFC300"/>
<path d="M27.4769 35.6183L1.01758 0H167.915C191.83 0 237.625 21.8652 237.625 72.7632C237.625 124.664 196.41 148.071 175.039 148.071L244.749 239.152H198.954L81.9221 84.9752H125.173L146.544 112.452H167.915C180.636 112.452 200.989 98.46 200.989 72.7632C200.989 47.3215 179.618 35.6183 167.915 35.6183H27.4769Z" fill="#FFC300"/>
</svg>
